<svg width="33" height="33" viewBox="0 0 33 33" fill="none" xmlns="http://www.w3.org/2000/svg">
  <path fill-rule="evenodd" clip-rule="evenodd" d="M16.5 33C25.6127 33 33 25.6127 33 16.5C33 7.3873 25.6127 0 16.5 0C7.3873 0 0 7.3873 0 16.5C0 25.6127 7.3873 33 16.5 33ZM16.5 29.7C9.20984 29.7 3.3 23.7902 3.3 16.5C3.3 9.20984 9.20984 3.3 16.5 3.3C23.7902 3.3 29.7 9.20984 29.7 16.5C29.7 23.7902 23.7902 29.7 16.5 29.7ZM13.95 10C13.0111 10 12.25 10.6467 12.25 11.4444V12.8889H9.7C8.76112 12.8889 8 13.5356 8 14.3333V15.0556L16.2938 17.1562C16.4292 17.185 16.5708 17.185 16.7062 17.1562L25 15.0556V14.3333C25 13.5356 24.2389 12.8889 23.3 12.8889H20.75V11.4444C20.75 10.6467 19.9889 10 19.05 10H13.95ZM13.95 12.8889V11.4444H19.05V12.8889H13.95ZM17.1185 18.5575L25 16.5V21.5556C25 22.3533 24.2389 23 23.3 23H9.7C8.76112 23 8 22.3533 8 21.5556V16.5L15.8815 18.5575C16.2876 18.6438 16.7124 18.6438 17.1185 18.5575Z" fill="white" />
</svg>
