<svg width="31" height="18" viewBox="0 0 31 18" fill="none" xmlns="http://www.w3.org/2000/svg">
<path fill-rule="evenodd" clip-rule="evenodd" d="M28.5771 1.43503L15.1421 14.8701L1.70707 1.43502L0.99996 2.14213L14.435 15.5772L15.1421 16.2843L15.8492 15.5772L29.2842 2.14214L28.5771 1.43503Z" fill="black"/>
<path d="M15.1421 14.8701L14.435 15.5772C14.6225 15.7647 14.8769 15.8701 15.1421 15.8701C15.4073 15.8701 15.6617 15.7647 15.8492 15.5772L15.1421 14.8701ZM28.5771 1.43503L29.2842 0.727922C29.0967 0.540385 28.8423 0.435028 28.5771 0.435028C28.3119 0.435028 28.0575 0.540385 27.87 0.727922L28.5771 1.43503ZM1.70707 1.43502L2.41417 0.727916C2.02365 0.337392 1.39048 0.337393 0.99996 0.727916L1.70707 1.43502ZM0.99996 2.14213L0.292853 1.43502C-0.0976708 1.82555 -0.0976714 2.45871 0.292853 2.84924L0.99996 2.14213ZM14.435 15.5772L13.7279 16.2843L14.435 15.5772ZM15.1421 16.2843L14.435 16.9914C14.8255 17.3819 15.4587 17.3819 15.8492 16.9914L15.1421 16.2843ZM15.8492 15.5772L16.5563 16.2843L15.8492 15.5772ZM29.2842 2.14214L29.9913 2.84924C30.3819 2.45872 30.3819 1.82555 29.9913 1.43503L29.2842 2.14214ZM15.8492 15.5772L29.2842 2.14214L27.87 0.727922L14.435 14.1629L15.8492 15.5772ZM0.99996 2.14213L14.435 15.5772L15.8492 14.1629L2.41417 0.727916L0.99996 2.14213ZM1.70707 2.84924L2.41417 2.14213L0.99996 0.727916L0.292853 1.43502L1.70707 2.84924ZM15.1421 14.8701L1.70707 1.43502L0.292853 2.84924L13.7279 16.2843L15.1421 14.8701ZM15.8492 15.5772L15.1421 14.8701L13.7279 16.2843L14.435 16.9914L15.8492 15.5772ZM15.1421 14.8701L14.435 15.5772L15.8492 16.9914L16.5563 16.2843L15.1421 14.8701ZM28.5771 1.43503L15.1421 14.8701L16.5563 16.2843L29.9913 2.84924L28.5771 1.43503ZM27.87 2.14214L28.5771 2.84924L29.9913 1.43503L29.2842 0.727922L27.87 2.14214Z" fill="black"/>
</svg>
