<svg width="33" height="33" viewBox="0 0 33 33" fill="none" xmlns="http://www.w3.org/2000/svg">
  <path fill-rule="evenodd" clip-rule="evenodd" d="M16.5 33C25.6127 33 33 25.6127 33 16.5C33 7.3873 25.6127 0 16.5 0C7.3873 0 0 7.3873 0 16.5C0 25.6127 7.3873 33 16.5 33ZM16.5 29.7C9.20984 29.7 3.3 23.7902 3.3 16.5C3.3 9.20984 9.20984 3.3 16.5 3.3C23.7902 3.3 29.7 9.20984 29.7 16.5C29.7 23.7902 23.7902 29.7 16.5 29.7ZM15.9493 15.0496C18.0382 12.8772 22.1671 9.34684 22.8986 10.1047C23.6301 10.8625 20.2327 15.1595 18.1438 17.3319C17.0465 18.4731 15.5835 19.6142 15.5835 19.6142C15.3846 18.8741 14.467 17.9203 13.7548 17.7123C13.7548 17.7123 14.852 16.1908 15.9493 15.0496ZM11.8005 19.197C12.5464 18.871 13.3649 19.06 13.8521 19.5654C14.6039 20.3453 14.5073 21.6502 13.9807 22.3701C12.6576 24.1788 10.463 24.1788 9 23.7984C9.7315 23.418 10.3137 22.1044 10.5487 20.9066C10.7066 20.1019 11.1399 19.5062 11.8005 19.197Z" fill="white" />
</svg>
