<svg width="24" height="24" viewBox="0 0 24 24" fill="none" xmlns="http://www.w3.org/2000/svg">
<g id="size=24">
<path id="Subtract" fill-rule="evenodd" clip-rule="evenodd" d="M6 2C4.9 2 4.01 2.9 4.01 4L4 20C4 21.1 4.89 22 5.99 22H18C19.1 22 20 21.1 20 20V8.41421C20 8.149 19.8946 7.89464 19.7071 7.70711L14.2929 2.29289C14.1054 2.10536 13.851 2 13.5858 2H6ZM14 9C13.4477 9 13 8.55228 13 8V3.5L18.5 9H14ZM14 13H16V16.2426L17.1569 15.0858L18.5711 16.5L15.0355 20.0355L11.5 16.5L12.9142 15.0858L14 16.1716V13Z" fill="#14191A"/>
</g>
</svg>
