<svg width="33" height="33" viewBox="0 0 33 33" fill="none" xmlns="http://www.w3.org/2000/svg">
  <path d="M33 16.5C33 25.6127 25.6127 33 16.5 33C7.3873 33 0 25.6127 0 16.5C0 7.3873 7.3873 0 16.5 0C25.6127 0 33 7.3873 33 16.5ZM3.3 16.5C3.3 23.7902 9.20984 29.7 16.5 29.7C23.7902 29.7 29.7 23.7902 29.7 16.5C29.7 9.20984 23.7902 3.3 16.5 3.3C9.20984 3.3 3.3 9.20984 3.3 16.5Z" fill="white" />
  <path d="M14.85 23.375V18.5221H18.15V23.375H22.275V16.9044H24.75L16.5 9.625L8.25 16.9044H10.725V23.375H14.85Z" fill="white" />
</svg>
