<svg width="90" height="37" viewBox="0 0 90 37" fill="none" xmlns="http://www.w3.org/2000/svg">
<path d="M46.125 18.5H17.3473M46.125 4.625H17.3473M46.125 32.375H17.3473M7.75467 18.5C7.75467 19.7772 6.68097 20.8125 5.35652 20.8125C4.03207 20.8125 2.95837 19.7772 2.95837 18.5C2.95837 17.2228 4.03207 16.1875 5.35652 16.1875C6.68097 16.1875 7.75467 17.2228 7.75467 18.5ZM7.75467 4.625C7.75467 5.90215 6.68097 6.9375 5.35652 6.9375C4.03207 6.9375 2.95837 5.90215 2.95837 4.625C2.95837 3.34785 4.03207 2.3125 5.35652 2.3125C6.68097 2.3125 7.75467 3.34785 7.75467 4.625ZM7.75467 32.375C7.75467 33.6522 6.68097 34.6875 5.35652 34.6875C4.03207 34.6875 2.95837 33.6522 2.95837 32.375C2.95837 31.0978 4.03207 30.0625 5.35652 30.0625C6.68097 30.0625 7.75467 31.0978 7.75467 32.375Z" stroke="black" stroke-width="4.625" stroke-linecap="round" stroke-linejoin="round"/>
<path fill-rule="evenodd" clip-rule="evenodd" d="M77.8391 25.6564L77.8389 25.6567L67.7084 15.5262L68.7986 14.4361L78.4228 24.0603L87.4633 15.0198L88.5534 16.1099L78.423 26.2403L77.8391 25.6564Z" fill="black"/>
<path d="M77.8391 25.6564L78.3842 25.1114C78.0831 24.8103 77.5951 24.8103 77.2941 25.1114L77.8391 25.6564ZM77.8389 25.6567L77.2938 26.2017C77.5948 26.5028 78.0829 26.5028 78.3839 26.2017L77.8389 25.6567ZM67.7084 15.5262L67.1634 14.9812C66.8624 15.2822 66.8624 15.7703 67.1634 16.0713L67.7084 15.5262ZM68.7986 14.4361L69.3436 13.8911C69.1991 13.7465 69.003 13.6653 68.7986 13.6653C68.5941 13.6653 68.3981 13.7465 68.2535 13.8911L68.7986 14.4361ZM78.4228 24.0603L77.8777 24.6054C78.1787 24.9064 78.6668 24.9064 78.9678 24.6054L78.4228 24.0603ZM87.4633 15.0198L88.0084 14.4747C87.7073 14.1737 87.2193 14.1737 86.9182 14.4747L87.4633 15.0198ZM88.5534 16.1099L89.0985 16.6549C89.2431 16.5104 89.3243 16.3143 89.3243 16.1099C89.3243 15.9054 89.2431 15.7094 89.0985 15.5648L88.5534 16.1099ZM78.423 26.2403L77.8779 26.7854C78.179 27.0864 78.667 27.0864 78.9681 26.7854L78.423 26.2403ZM77.2941 25.1114L77.2938 25.1116L78.3839 26.2017L78.3842 26.2015L77.2941 25.1114ZM78.3839 25.1116L68.2535 14.9812L67.1634 16.0713L77.2938 26.2017L78.3839 25.1116ZM68.2535 16.0713L69.3436 14.9812L68.2535 13.8911L67.1634 14.9812L68.2535 16.0713ZM68.2535 14.9812L77.8777 24.6054L78.9678 23.5152L69.3436 13.8911L68.2535 14.9812ZM78.9678 24.6054L88.0084 15.5648L86.9182 14.4747L77.8777 23.5152L78.9678 24.6054ZM86.9182 15.5648L88.0084 16.6549L89.0985 15.5648L88.0084 14.4747L86.9182 15.5648ZM88.0084 15.5648L77.8779 25.6953L78.9681 26.7854L89.0985 16.6549L88.0084 15.5648ZM78.9681 25.6953L78.3842 25.1114L77.2941 26.2015L77.8779 26.7854L78.9681 25.6953Z" fill="black"/>
</svg>
