<svg width="33" height="33" viewBox="0 0 33 33" fill="none" xmlns="http://www.w3.org/2000/svg">
  <path d="M33 16.5C33 25.6127 25.6127 33 16.5 33C7.3873 33 0 25.6127 0 16.5C0 7.3873 7.3873 0 16.5 0C25.6127 0 33 7.3873 33 16.5ZM3.3 16.5C3.3 23.7902 9.20984 29.7 16.5 29.7C23.7902 29.7 29.7 23.7902 29.7 16.5C29.7 9.20984 23.7902 3.3 16.5 3.3C9.20984 3.3 3.3 9.20984 3.3 16.5Z" fill="white" />
  <path d="M11 9.62518C12.375 9.62485 12.3031 9.62485 13.0625 9.62485V16.4999L14.4375 15.1249L15.8125 16.4999V9.62488L20.625 9.625C21.3844 9.625 21.3125 9.62485 22 9.62546V19.25C22 20.625 22 19.25 22 20.625C21.6203 20.625 22 20.2453 22 20.625C22 21.0047 22 23.3749 22 23.3749C22 23.3749 21.3844 23.375 20.625 23.375H12.375C11.6156 23.375 11.6875 23.3749 11 23.375V9.62518Z" fill="white" />
  <path d="M33 16.5C33 25.6127 25.6127 33 16.5 33C7.3873 33 0 25.6127 0 16.5C0 7.3873 7.3873 0 16.5 0C25.6127 0 33 7.3873 33 16.5ZM3.3 16.5C3.3 23.7902 9.20984 29.7 16.5 29.7C23.7902 29.7 29.7 23.7902 29.7 16.5C29.7 9.20984 23.7902 3.3 16.5 3.3C9.20984 3.3 3.3 9.20984 3.3 16.5Z" fill="white" />
</svg>
